<svg width="24" height="22" viewBox="0 0 24 22" fill="none" xmlns="http://www.w3.org/2000/svg">
<path d="M11.4715 9.87684L0.471458 16.7256C0.178245 16.9082 0 17.2291 0 17.5745V21.0998C0 21.4921 0.431218 21.7316 0.764271 21.5242L11.4715 14.8578C11.795 14.6563 12.205 14.6563 12.5285 14.8578L23.2357 21.5242C23.5688 21.7316 24 21.4921 24 21.0998V17.5745C24 17.2291 23.8218 16.9082 23.5285 16.7256L12.5285 9.87684C12.205 9.67539 11.795 9.67539 11.4715 9.87684Z" fill="white"/>
<path d="M11.4715 0.329077L0.471458 7.17783C0.178245 7.36039 0 7.68134 0 8.02674V11.552C0 11.9443 0.431218 12.1838 0.764271 11.9764L11.4715 5.30999C11.795 5.10853 12.205 5.10853 12.5285 5.30999L23.2357 11.9764C23.5688 12.1838 24 11.9443 24 11.552V8.02674C24 7.68134 23.8218 7.36039 23.5285 7.17783L12.5285 0.329077C12.205 0.127621 11.795 0.127621 11.4715 0.329077Z" fill="white"/>
</svg>
