<svg width="60" height="60" viewBox="0 0 60 60" fill="none" xmlns="http://www.w3.org/2000/svg">
<g clip-path="url(#clip0_27_69)">
<path d="M30.62 16.7125C28.98 23.4475 29.085 23.0875 27.5975 29.2475C27.5892 29.3992 27.5488 29.5476 27.479 29.6826C27.4091 29.8176 27.3115 29.9363 27.1924 30.0308C27.0733 30.1253 26.9355 30.1935 26.7882 30.2308C26.6408 30.2682 26.4872 30.2738 26.3375 30.2475H26.345H24.6575C24.5254 30.2698 24.3902 30.2654 24.2599 30.2345C24.1296 30.2035 24.0068 30.1468 23.8988 30.0675C23.7909 29.9882 23.6999 29.888 23.6314 29.7729C23.5629 29.6578 23.5182 29.5302 23.5 29.3975V29.3925C22.0575 24.7775 20.125 18.3675 18.825 14.08C18.345 12.4975 18.66 12.535 19.915 12.5675C20.35 12.58 20.77 12.5675 21.2025 12.5675C21.4524 12.5416 21.7027 12.6132 21.9012 12.7674C22.0996 12.9215 22.2308 13.1464 22.2675 13.395V13.4C22.69 14.9125 22.97 16.0725 25.3825 25.6C25.4275 25.7875 25.4875 25.965 25.5475 26.1375H25.675C25.7325 25.9025 25.8025 25.6825 25.8625 25.445C26.7758 21.59 27.6858 17.7316 28.5925 13.87C28.875 12.67 29.3775 12.5575 30.5925 12.5575H31.4825C32.2825 12.57 32.5375 12.7325 32.7375 13.53C33.44 16.2725 35.4925 25.455 35.865 26.465C36.465 24.32 35.655 27.39 39.205 13.695C39.45 12.7475 39.685 12.56 40.6475 12.56H42.125C42.7575 12.5725 42.945 12.77 42.7925 13.3925C42.51 14.5075 42.4525 14.5525 37.955 28.9625C37.59 30.1225 37.4625 30.2275 36.245 30.2275H35.0025C34.1475 30.2275 33.925 30.075 33.715 29.2425C33.21 27.345 30.985 18.03 30.62 16.7175V16.7125ZM14.71 29.74C14.7813 29.8878 14.8869 30.0164 15.0181 30.115C15.1492 30.2136 15.3021 30.2794 15.4639 30.3068C15.6257 30.3343 15.7917 30.3225 15.9481 30.2726C16.1044 30.2227 16.2465 30.1361 16.3625 30.02L17.1 29.5275C17.9 29 17.955 28.79 17.5225 27.945C17.0336 27.0046 16.7797 25.9598 16.7825 24.9V24.7875V24.7925C16.7825 24.4275 16.8525 18.2675 16.6775 16.9675C16.6045 15.9262 16.2122 14.9328 15.5542 14.1226C14.8961 13.3124 14.0042 12.7248 13 12.44L12.965 12.4325C11.7021 12.0897 10.3887 11.9721 9.08499 12.085L9.12499 12.0825C7.35563 12.1485 5.62446 12.6161 4.06249 13.45L4.12499 13.42C3.89897 13.5409 3.72803 13.7441 3.64749 13.9875L3.64499 13.995C3.54302 14.4669 3.51519 14.9519 3.56249 15.4325L3.55999 15.4125C3.62999 16.105 3.86499 16.2325 4.51999 16.0125C5.11999 15.8125 5.69249 15.5575 6.28999 15.38C7.97032 14.7779 9.79629 14.7132 11.515 15.195L11.455 15.18C12.2475 15.4175 12.865 16.015 13.125 16.7775L13.13 16.795C13.4014 17.7198 13.4947 18.6878 13.405 19.6475L13.4075 19.6175C13.4075 20.2625 13.395 20.2625 12.7625 20.145C11.1382 19.7495 9.45932 19.6279 7.79499 19.785L7.85499 19.78C6.99023 19.8418 6.14742 20.0808 5.37889 20.482C4.61037 20.8833 3.93254 21.4382 3.38749 22.1125L3.37749 22.125C2.72749 23.025 2.33749 24.1525 2.33749 25.37C2.33749 25.8625 2.39999 26.3375 2.51999 26.7925L2.51249 26.7525C2.63581 27.5735 2.98878 28.3429 3.53066 28.972C4.07254 29.601 4.78125 30.064 5.57499 30.3075L5.60499 30.315C6.73818 30.7095 7.9523 30.8133 9.13601 30.6167C10.3197 30.4202 11.4351 29.9296 12.38 29.19L12.365 29.2025C12.81 28.875 13.21 28.4775 13.665 28.0875C14.03 28.6725 14.345 29.2225 14.7075 29.7275L14.71 29.74ZM12.91 22.5225H12.9225C12.9972 22.5224 13.071 22.539 13.1386 22.571C13.2061 22.6031 13.2656 22.6498 13.3128 22.7077C13.3599 22.7657 13.3936 22.8334 13.4113 22.906C13.429 22.9786 13.4302 23.0543 13.415 23.1275V23.125C13.39 23.57 13.4275 24.015 13.38 24.46C13.255 25.7675 12.4375 26.8575 11.305 27.37L11.2825 27.38C10.3352 27.8723 9.26429 28.0757 8.20249 27.965L8.22499 27.9675C7.85761 27.9465 7.49935 27.8449 7.17564 27.6699C6.85192 27.4949 6.57069 27.2508 6.35189 26.955C6.13309 26.6591 5.98209 26.3187 5.90961 25.9579C5.83713 25.5972 5.84494 25.2249 5.93249 24.8675L5.92999 24.885C5.99499 23.515 7.07999 22.4175 8.43999 22.3325H8.44749C9.96657 22.1007 11.5166 22.1729 13.0075 22.545L12.9275 22.5275L12.91 22.5225ZM53.775 30.15C54.9673 29.7565 55.9737 28.9393 56.6036 27.8532C57.2335 26.7671 57.4431 25.4877 57.1925 24.2575L57.1975 24.29C57.0708 23.5035 56.7316 22.7667 56.2165 22.1591C55.7014 21.5514 55.0301 21.0962 54.275 20.8425L54.245 20.8325C52.2132 20.2054 50.2233 19.4497 48.2875 18.57L48.61 18.7025C48.3482 18.5729 48.1269 18.3742 47.97 18.1279C47.8131 17.8815 47.7267 17.5969 47.72 17.305V17.3025C47.679 17.0317 47.6933 16.7554 47.7621 16.4903C47.8309 16.2252 47.9528 15.9768 48.1204 15.7602C48.2879 15.5435 48.4977 15.3631 48.737 15.2299C48.9763 15.0966 49.2401 15.0133 49.5125 14.985H49.52C50.6194 14.7402 51.7578 14.7274 52.8625 14.9475L52.8125 14.94C53.6675 15.105 54.4875 15.4325 55.32 15.6775C55.6475 15.7825 56.0125 15.9225 56.235 15.49C56.4465 15.0378 56.4768 14.5218 56.3196 14.048C56.1625 13.5742 55.8298 13.1786 55.39 12.9425L55.38 12.9375C54.0615 12.3179 52.6218 11.9994 51.165 12.005C49.8 12.005 48.5 12.28 47.315 12.775L47.38 12.75C46.4978 13.095 45.7367 13.6921 45.1915 14.4668C44.6463 15.2415 44.3413 16.1595 44.3144 17.1064C44.2874 18.0533 44.5398 18.9871 45.0401 19.7916C45.5403 20.596 46.2663 21.2354 47.1275 21.63L47.1575 21.6425C48.06 22.0775 49.0425 22.335 49.9925 22.685C50.9425 23.035 51.89 23.365 52.8175 23.75C53.1267 23.9204 53.3868 24.1675 53.5727 24.4677C53.7585 24.7678 53.864 25.1107 53.8788 25.4635C53.8936 25.8162 53.8173 26.1668 53.6573 26.4814C53.4972 26.7961 53.2588 27.0642 52.965 27.26L52.9575 27.265C49.7125 29.065 45.3575 26.9825 44.85 26.82C44.465 26.6925 44.23 26.845 44.1125 27.255C44.0029 27.5163 43.9514 27.7984 43.9616 28.0817C43.9718 28.3649 44.0435 28.6425 44.1716 28.8953C44.2998 29.1481 44.4814 29.37 44.7039 29.5457C44.9264 29.7213 45.1844 29.8464 45.46 29.9125L45.4725 29.915C46.8976 30.4755 48.4161 30.7605 49.9475 30.755C51.3125 30.755 52.6275 30.5325 53.855 30.1225L53.7675 30.1475L53.775 30.15ZM34.69 49.2125C40.6664 48.5927 46.4361 46.6784 51.5975 43.6025L51.4075 43.7075C52.345 43.1575 53.2225 42.5075 54.1125 41.8675C54.9675 41.2675 54.4875 39.7125 52.7875 40.4375C46.9275 43.01 40.1225 44.655 32.975 44.99L32.8475 44.995C29.1762 45.1619 25.4975 44.9651 21.865 44.4075L22.1725 44.4475C14.38 43.325 7.36249 40.8025 1.09999 37.13L1.37249 37.2775C1.14386 37.125 0.893544 37.0078 0.629991 36.93L0.609991 36.925C0.0349913 36.7975 -0.292509 37.475 0.327491 38.06C8.29642 45.4349 18.7596 49.5234 29.6175 49.505H29.6525H29.65C31.3375 49.41 33.025 49.4 34.6875 49.2125H34.69ZM55.1575 38.4125C56.8925 38.5075 57.43 39.105 56.9975 40.7775C56.5525 42.5125 55.9075 44.2 55.37 45.91C55.265 46.25 54.8775 46.6475 55.275 46.9425C55.71 47.2475 56.0375 46.825 56.33 46.5575C57.475 45.4691 58.3661 44.1418 58.94 42.67L58.965 42.5975C59.6433 41.0893 59.9911 39.4536 59.985 37.8V37.6825V37.6875C59.96 36.9625 59.775 36.655 59.07 36.4575C58.453 36.2717 57.819 36.1478 57.1775 36.0875L57.1375 36.085C54.6189 35.7858 52.0677 36.229 49.7975 37.36L49.8725 37.325C49.5058 37.5219 49.1606 37.7565 48.8425 38.025L48.8525 38.0175C48.725 38.1225 48.4775 38.6375 49.135 38.7325C49.3715 38.7501 49.6092 38.7375 49.8425 38.695L49.825 38.6975C51.6063 38.4518 53.4053 38.3581 55.2025 38.4175H55.155L55.1575 38.4125Z" fill="#A93DE9"/>
</g>
<defs>
<clipPath id="clip0_27_69">
<rect width="60" height="60" fill="white"/>
</clipPath>
</defs>
</svg>
