<svg width="60" height="60" viewBox="0 0 60 60" fill="none" xmlns="http://www.w3.org/2000/svg">
<path fill-rule="evenodd" clip-rule="evenodd" d="M12.4625 5C9.0375 5 6.505 7.9975 6.62 11.245C6.7275 14.37 6.5875 18.4125 5.57 21.71C4.545 25.015 2.82 27.11 0 27.38V30.4175C2.82 30.685 4.5475 32.78 5.5675 36.0875C6.5875 39.385 6.7275 43.4275 6.6175 46.55C6.505 49.8 9.0375 52.7975 12.4625 52.7975H47.5425C50.9675 52.7975 53.5 49.8 53.385 46.55C53.2775 43.4275 53.4175 39.385 54.435 36.0875C55.4575 32.78 57.18 30.6875 60 30.4175V27.38C57.18 27.11 55.4575 25.015 54.435 21.71C53.4175 18.41 53.2775 14.3675 53.385 11.245C53.5 7.995 50.965 5 47.5425 5H12.4625ZM40.675 34.4225C40.675 38.8975 37.3375 41.61 31.8 41.61H22.3725C22.1026 41.61 21.8438 41.5028 21.653 41.312C21.4622 41.1212 21.355 40.8624 21.355 40.5925V17.2025C21.3557 16.9331 21.4632 16.6749 21.6539 16.4846C21.8446 16.2944 22.1031 16.1875 22.3725 16.1875H31.7475C36.365 16.1875 39.3975 18.6875 39.3975 22.53C39.3975 25.225 37.3575 27.6375 34.76 28.0625V28.2025C38.2975 28.59 40.6775 31.04 40.6775 34.4225H40.675ZM30.775 19.41H25.4V27.005H29.9275C33.4275 27.005 35.3575 25.595 35.3575 23.075C35.3575 20.715 33.6975 19.41 30.775 19.41ZM25.4 30.0175V38.385H30.975C34.6175 38.385 36.55 36.9225 36.55 34.175C36.55 31.425 34.565 30.0175 30.74 30.0175H25.4Z" fill="#A93DE9"/>
</svg>
