<svg width="60" height="60" viewBox="0 0 60 60" fill="none" xmlns="http://www.w3.org/2000/svg">
<path fill-rule="evenodd" clip-rule="evenodd" d="M37.93 0H27.49V14.83C25.9325 14.455 24.64 14.33 22.95 14.33C12.04 14.3275 5 20.7625 5 30.6825C5 40.9775 11.6375 46.34 24.3875 46.3525C28.645 46.3525 32.5825 45.9775 37.93 45.0275V0ZM24.335 22.4425C25.625 22.4425 26.635 22.5675 27.855 22.9425V38.5625C26.365 38.75 25.425 38.8125 24.27 38.8125C18.92 38.8125 16.0075 35.9575 16.0075 30.7875C16.0075 25.475 19.0575 22.4425 24.335 22.4425Z" fill="#A93DE9"/>
<path d="M55 38.0825V15.5375H44.575V34.725C44.575 43.1925 44.105 46.41 42.6125 49.19C41.1875 51.9075 38.9575 53.69 34.35 55.705L44.0375 60C48.645 57.845 50.875 55.8925 52.5675 52.8C54.3825 49.58 55 45.845 55 38.0825Z" fill="#A93DE9"/>
<path d="M53.96 0H43.525V9.9825H53.9625V0H53.96Z" fill="#A93DE9"/>
</svg>
