<svg width="60" height="60" viewBox="0 0 60 60" fill="none" xmlns="http://www.w3.org/2000/svg">
<path d="M50.425 24.55C49.7212 24.5461 49.0184 24.6047 48.325 24.725C48.1439 23.6302 47.7314 22.5867 47.1149 21.6642C46.4984 20.7416 45.6922 19.9611 44.75 19.375L44.05 18.975L43.575 19.65C42.9785 20.559 42.5469 21.5661 42.3 22.625C42.0533 23.5576 41.9991 24.5307 42.141 25.4849C42.2828 26.4392 42.6177 27.3545 43.125 28.175C41.9802 28.6853 40.7516 28.9819 39.5 29.05H6.575C6.16158 29.0499 5.76472 29.2124 5.47006 29.5024C5.17539 29.7924 5.00657 30.1866 5 30.6C4.96923 33.4892 5.46045 36.3603 6.45 39.075C7.33831 41.7423 9.09982 44.0322 11.45 45.575C14.866 47.3089 18.6733 48.1272 22.5 47.95C24.5262 47.9851 26.5513 47.8344 28.55 47.5C31.3515 46.9984 34.0479 46.0263 36.525 44.625C38.5702 43.3849 40.402 41.8232 41.95 40C44.2586 37.2841 46.062 34.1767 47.275 30.825H47.75C48.7722 30.8628 49.7916 30.6965 50.7488 30.336C51.706 29.9754 52.5818 29.4278 53.325 28.725C53.9739 28.1201 54.4781 27.3766 54.8 26.55L55 26L54.5 25.6C53.289 24.8231 51.8607 24.455 50.425 24.55Z" fill="#A93DE9"/>
<path d="M14.025 23.375H9.62501C9.52311 23.3748 9.42498 23.4134 9.35065 23.4831C9.27631 23.5528 9.23137 23.6483 9.22501 23.75V27.7C9.23137 27.8016 9.27631 27.8971 9.35065 27.9668C9.42498 28.0365 9.52311 28.0752 9.62501 28.075H14.025C14.1269 28.0752 14.225 28.0365 14.2994 27.9668C14.3737 27.8971 14.4186 27.8016 14.425 27.7V23.75C14.4186 23.6483 14.3737 23.5528 14.2994 23.4831C14.225 23.4134 14.1269 23.3748 14.025 23.375ZM20.125 23.375H15.7C15.5981 23.3748 15.5 23.4134 15.4256 23.4831C15.3513 23.5528 15.3064 23.6483 15.3 23.75V27.7C15.3064 27.8016 15.3513 27.8971 15.4256 27.9668C15.5 28.0365 15.5981 28.0752 15.7 28.075H20.125C20.2245 28.075 20.3198 28.0354 20.3902 27.9651C20.4605 27.8948 20.5 27.7994 20.5 27.7V23.75C20.5 23.6505 20.4605 23.5551 20.3902 23.4848C20.3198 23.4145 20.2245 23.375 20.125 23.375ZM26.3 23.375H21.875C21.7755 23.375 21.6802 23.4145 21.6098 23.4848C21.5395 23.5551 21.5 23.6505 21.5 23.75V27.7C21.5 27.7994 21.5395 27.8948 21.6098 27.9651C21.6802 28.0354 21.7755 28.075 21.875 28.075H26.3C26.3995 28.075 26.4948 28.0354 26.5652 27.9651C26.6355 27.8948 26.675 27.7994 26.675 27.7V23.75C26.675 23.6505 26.6355 23.5551 26.5652 23.4848C26.4948 23.4145 26.3995 23.375 26.3 23.375ZM27.975 23.375C27.9182 23.3592 27.8585 23.357 27.8007 23.3687C27.7429 23.3803 27.6887 23.4054 27.6424 23.442C27.5961 23.4785 27.5591 23.5254 27.5344 23.5789C27.5096 23.6324 27.4979 23.691 27.5 23.75V27.7C27.5 27.7492 27.5097 27.798 27.5285 27.8435C27.5474 27.889 27.575 27.9303 27.6098 27.9651C27.6447 27.9999 27.686 28.0276 27.7315 28.0464C27.777 28.0653 27.8258 28.075 27.875 28.075H32.5C32.5995 28.075 32.6948 28.0354 32.7652 27.9651C32.8355 27.8948 32.875 27.7994 32.875 27.7V23.75C32.875 23.6505 32.8355 23.5551 32.7652 23.4848C32.6948 23.4145 32.5995 23.375 32.5 23.375H27.975ZM15.7 17.725H20C20.1061 17.725 20.2078 17.7671 20.2828 17.8421C20.3579 17.9171 20.4 18.0189 20.4 18.125V22.025C20.4112 22.0834 20.4092 22.1436 20.3941 22.2011C20.3791 22.2587 20.3514 22.3122 20.3131 22.3577C20.2748 22.4032 20.2268 22.4396 20.1726 22.4642C20.1185 22.4888 20.0595 22.501 20 22.5H15.7C15.6005 22.5 15.5052 22.4604 15.4348 22.3901C15.3645 22.3198 15.325 22.2244 15.325 22.125V18.1C15.325 18.0507 15.3347 18.0019 15.3536 17.9564C15.3724 17.9109 15.4 17.8696 15.4348 17.8348C15.4697 17.8 15.511 17.7723 15.5565 17.7535C15.602 17.7347 15.6508 17.725 15.7 17.725ZM21.875 17.725H26.3C26.3493 17.725 26.398 17.7347 26.4435 17.7535C26.489 17.7723 26.5303 17.8 26.5652 17.8348C26.6 17.8696 26.6276 17.9109 26.6465 17.9564C26.6653 18.0019 26.675 18.0507 26.675 18.1V22.025C26.675 22.131 26.6329 22.2328 26.5578 22.3078C26.4828 22.3828 26.3811 22.425 26.275 22.425H21.875C21.7755 22.425 21.6802 22.3854 21.6098 22.3151C21.5395 22.2448 21.5 22.1494 21.5 22.05V18.1C21.5 18.0507 21.5097 18.0019 21.5285 17.9564C21.5474 17.9109 21.575 17.8696 21.6098 17.8348C21.6447 17.8 21.686 17.7723 21.7315 17.7535C21.777 17.7347 21.8258 17.725 21.875 17.725ZM27.975 17.725H32.5C32.5492 17.725 32.598 17.7347 32.6435 17.7535C32.689 17.7723 32.7303 17.8 32.7652 17.8348C32.8 17.8696 32.8276 17.9109 32.8465 17.9564C32.8653 18.0019 32.875 18.0507 32.875 18.1V22.025C32.8908 22.0818 32.8929 22.1415 32.8813 22.1993C32.8696 22.2571 32.8445 22.3113 32.808 22.3576C32.7715 22.4038 32.7245 22.4408 32.671 22.4656C32.6175 22.4903 32.5589 22.5021 32.5 22.5H27.975C27.9097 22.514 27.8419 22.5114 27.7779 22.4925C27.7138 22.4736 27.6555 22.4389 27.6083 22.3917C27.561 22.3445 27.5264 22.2862 27.5075 22.2221C27.4886 22.158 27.486 22.0903 27.5 22.025V18.1C27.4979 18.041 27.5096 17.9824 27.5344 17.9289C27.5591 17.8754 27.5961 17.8285 27.6424 17.792C27.6887 17.7554 27.7429 17.7303 27.8007 17.7187C27.8585 17.707 27.9182 17.7092 27.975 17.725Z" fill="#A93DE9"/>
<path d="M32.4 12.05H27.975C27.7679 12.05 27.6 12.2179 27.6 12.425V16.375C27.6 16.5822 27.7679 16.75 27.975 16.75H32.4C32.6071 16.75 32.775 16.5822 32.775 16.375V12.425C32.775 12.2179 32.6071 12.05 32.4 12.05Z" fill="#A93DE9"/>
<path d="M34.125 23.375C34.0255 23.375 33.9302 23.4145 33.8598 23.4848C33.7895 23.5552 33.75 23.6505 33.75 23.75V27.7C33.75 27.7995 33.7895 27.8948 33.8598 27.9652C33.9302 28.0355 34.0255 28.075 34.125 28.075H38.55C38.5992 28.075 38.648 28.0653 38.6935 28.0465C38.739 28.0276 38.7803 28 38.8152 27.9652C38.85 27.9303 38.8776 27.889 38.8965 27.8435C38.9153 27.798 38.925 27.7492 38.925 27.7V23.75C38.925 23.7008 38.9153 23.652 38.8965 23.6065C38.8776 23.561 38.85 23.5197 38.8152 23.4848C38.7803 23.45 38.739 23.4224 38.6935 23.4035C38.648 23.3847 38.5992 23.375 38.55 23.375H34.125Z" fill="#A93DE9"/>
</svg>
