<svg width="60" height="60" viewBox="0 0 60 60" fill="none" xmlns="http://www.w3.org/2000/svg">
<path d="M37.875 3.31818L35.2431 6.18931C34.7696 6.70588 34.101 7 33.4002 7H26.5998C25.899 7 25.2304 6.70588 24.7569 6.18931L22.125 3.31818M14.25 44.7273H45.75M28.875 50.8636H31.125M19.5 57H40.5C44.6421 57 48 53.6421 48 49.5V10.5C48 6.35786 44.6421 3 40.5 3H19.5C15.3579 3 12 6.35786 12 10.5V49.5C12 53.6421 15.3579 57 19.5 57Z" stroke="#4F4058" stroke-width="5" stroke-linecap="round" stroke-linejoin="round"/>
<path d="M34 16L34.3416 16.1708C35.358 16.679 36 17.7189 36 18.8553V18.8553C36 21.5074 37.0536 24.0536 38.9289 25.9289L39 26L38.9289 26.0711C37.0536 27.9464 36 30.4926 36 33.1447V33.1447C36 34.2811 35.358 35.321 34.3416 35.8292L34 36M26 16L25.6584 16.1708C24.642 16.679 24 17.7189 24 18.8553V18.8553C24 21.5074 22.9464 24.0536 21.0711 25.9289L21 26L21.0711 26.0711C22.9464 27.9464 24 30.4926 24 33.1447V33.1447C24 34.2811 24.642 35.321 25.6584 35.8292L26 36" stroke="#A93DE9" stroke-width="5" stroke-linecap="round" stroke-linejoin="round"/>
</svg>
