<svg width="60" height="60" viewBox="0 0 60 60" fill="none" xmlns="http://www.w3.org/2000/svg">
<path d="M30 0L4.0125 15V45L30 60L55.9875 45V15L30 0ZM45 41.475C45 43.2431 43.3875 44.6981 41.1825 44.6981C39.6 44.6981 37.8019 44.0625 36.6806 42.675L21.6806 24.825V41.475C21.6806 43.2731 20.2556 44.6981 18.4875 44.6981H18.3C17.4471 44.6917 16.631 44.3501 16.028 43.747C15.4249 43.144 15.0833 42.3279 15.0769 41.475V18.525C15.0769 16.7569 16.65 15.3019 18.8269 15.3019C20.4394 15.3019 22.275 15.9375 23.3962 17.325L38.3194 35.175V18.525C38.3194 16.7194 39.825 15.3019 41.5519 15.3019H41.7375C42.5907 15.3073 43.4073 15.6486 44.0106 16.2519C44.6139 16.8552 44.9552 17.6718 44.9606 18.525V41.475H45Z" fill="#A93DE9"/>
</svg>
