<svg width="61" height="68" viewBox="0 0 61 68" fill="none" xmlns="http://www.w3.org/2000/svg">
<g filter="url(#filter0_d_27_39)">
<path d="M30.5 59.5313C29.7074 59.5313 28.9029 59.3203 28.2049 58.9219L20.9056 54.6445C19.8172 54.0352 20.3496 53.8242 20.7045 53.707C22.1596 53.2031 22.4554 53.0977 24.0051 52.2188C24.1708 52.125 24.3837 52.1602 24.5493 52.2656L30.1569 55.5586C30.358 55.6758 30.642 55.6758 30.8312 55.5586L52.6819 43.0664C52.883 42.9492 53.0132 42.7148 53.0132 42.4805V17.4961C53.0132 17.25 52.883 17.0273 52.6701 16.8984L30.8312 4.41797C30.6301 4.30078 30.358 4.30078 30.1569 4.41797L8.32991 16.9102C8.11696 17.0273 7.98683 17.2617 7.98683 17.5078V42.4805C7.98683 42.7148 8.11696 42.9492 8.32991 43.0547L14.3161 46.4766C17.5694 48.082 19.5569 46.1953 19.5569 44.2852V19.6289C19.5569 19.2773 19.8408 19.0078 20.1958 19.0078H22.9641C23.3071 19.0078 23.6029 19.2773 23.6029 19.6289V44.2969C23.6029 48.5859 21.2368 51.0469 17.1317 51.0469C15.8658 51.0469 14.8721 51.0469 12.1038 49.6875L6.3779 46.418C4.95826 45.6094 4.08281 44.0977 4.08281 42.4688V17.4961C4.08281 15.8789 4.95826 14.3555 6.3779 13.5469L28.2049 1.05469C29.5891 0.28125 31.4228 0.28125 32.7951 1.05469L54.6458 13.5586C56.0654 14.3672 56.9408 15.8789 56.9408 17.5078V42.4805C56.9408 44.0977 56.0654 45.6094 54.6458 46.4297L32.7951 58.9219C32.0971 59.3203 31.3045 59.5313 30.5 59.5313ZM48.1391 34.9102C48.1391 30.2344 44.9449 28.9922 38.237 28.1133C31.4464 27.2227 30.7603 26.7656 30.7603 25.1953C30.7603 23.8945 31.34 22.1602 36.3679 22.1602C40.8516 22.1602 42.5078 23.1211 43.194 26.1211C43.2531 26.4023 43.5134 26.6133 43.8091 26.6133H46.6484C46.8259 26.6133 46.9915 26.543 47.1098 26.4141C47.2281 26.2852 47.2873 26.1094 47.2754 25.9336C46.8377 20.7656 43.3714 18.3633 36.3679 18.3633C30.1333 18.3633 26.4185 20.9648 26.4185 25.3359C26.4185 30.0703 30.1214 31.3828 36.0958 31.9688C43.2531 32.6602 43.8091 33.7031 43.8091 35.0977C43.8091 37.5117 41.8453 38.543 37.2433 38.543C31.4583 38.543 30.1924 37.1016 29.7665 34.2539C29.7192 33.9492 29.4589 33.7266 29.1395 33.7266H26.312C25.9571 33.7266 25.685 34.0078 25.685 34.3477C25.685 37.9922 27.6844 42.3398 37.2551 42.3398C44.1641 42.3281 48.1391 39.6211 48.1391 34.9102Z" fill="#A93DE9"/>
</g>
<defs>
<filter id="filter0_d_27_39" x="0" y="0" width="61" height="68" filterUnits="userSpaceOnUse" color-interpolation-filters="sRGB">
<feFlood flood-opacity="0" result="BackgroundImageFix"/>
<feColorMatrix in="SourceAlpha" type="matrix" values="0 0 0 0 0 0 0 0 0 0 0 0 0 0 0 0 0 0 127 0" result="hardAlpha"/>
<feOffset dy="4"/>
<feGaussianBlur stdDeviation="2"/>
<feComposite in2="hardAlpha" operator="out"/>
<feColorMatrix type="matrix" values="0 0 0 0 0 0 0 0 0 0 0 0 0 0 0 0 0 0 0.25 0"/>
<feBlend mode="normal" in2="BackgroundImageFix" result="effect1_dropShadow_27_39"/>
<feBlend mode="normal" in="SourceGraphic" in2="effect1_dropShadow_27_39" result="shape"/>
</filter>
</defs>
</svg>
