<svg width="60" height="60" viewBox="0 0 60 60" fill="none" xmlns="http://www.w3.org/2000/svg">
<path d="M15.8925 22.5C9.3 24.2 5 27.1125 5 30.4375C5 35.705 16.0125 40 29.625 40C31.475 40 32.775 39.9025 34.5 39.7575" stroke="#A93DE9" stroke-width="3" stroke-linecap="round" stroke-linejoin="round"/>
<path d="M24.5925 39.7499C23.56 38.2599 22.5775 36.9174 21.6425 35.2499C14.765 22.9999 12.9225 10.8249 17.5675 8.06745C20.4425 6.32495 25.185 8.69995 30.0025 13.7024" stroke="#A93DE9" stroke-width="3" stroke-linecap="round" stroke-linejoin="round"/>
<path d="M16.0725 38.4675C14.3175 45.1875 14.6725 50.2575 17.4725 51.955C21.93 54.655 30.94 47.06 37.58 34.945C38.48 33.27 39.2875 31.6225 40 30" stroke="#A93DE9" stroke-width="3" stroke-linecap="round" stroke-linejoin="round"/>
<path d="M30 46.3C34.82 51.3 39.5425 53.675 42.445 51.9325C47.07 49.1775 45.2475 37.0025 38.3625 24.75C37.4025 23.0575 36.42 21.74 35.4125 20.25" stroke="#A93DE9" stroke-width="3" stroke-linecap="round" stroke-linejoin="round"/>
<path d="M44.15 37.5C50.68 35.7825 55 32.875 55 29.56C55 24.285 43.98 20 30.3875 20C28.52 20 27.2225 20.0725 25.5 20.2175" stroke="#A93DE9" stroke-width="3" stroke-linecap="round" stroke-linejoin="round"/>
<path d="M20 29.9999C20.7125 28.3499 21.5175 26.7299 22.42 25.0549C29.0375 12.9449 38.0525 5.32989 42.535 8.05239C45.31 9.74989 45.69 14.8174 43.935 21.5349" stroke="#A93DE9" stroke-width="3" stroke-linecap="round" stroke-linejoin="round"/>
<path d="M30.65 30.0374H30.625C30.6 30.3624 30.325 30.6374 29.975 30.6374C29.8076 30.6291 29.6497 30.5573 29.5335 30.4364C29.4174 30.3156 29.3517 30.155 29.35 29.9874C29.35 29.6374 29.625 29.3624 29.95 29.3624H29.925C30.25 29.3374 30.55 29.6374 30.55 29.9624" stroke="#A93DE9" stroke-width="3" stroke-linecap="round" stroke-linejoin="round"/>
</svg>
