<svg width="60" height="60" viewBox="0 0 60 60" fill="none" xmlns="http://www.w3.org/2000/svg">
<g clip-path="url(#clip0_27_58)">
<path d="M30 10C25.896 10 22.368 11.108 19.6 13.48C16.848 15.84 15.052 19.268 14.052 23.544C13.9459 23.9969 14.0009 24.4726 14.2076 24.8893C14.4144 25.3059 14.7599 25.6375 15.1847 25.827C15.6095 26.0164 16.0871 26.0519 16.5352 25.9272C16.9834 25.8026 17.374 25.5256 17.64 25.144C18.904 23.336 20.168 22.252 21.384 21.692C22.56 21.152 23.828 21.044 25.284 21.432C26.748 21.824 27.884 22.976 29.664 24.912L29.724 24.976C31.068 26.436 32.704 28.216 34.944 29.6C37.272 31.036 40.164 32 44 32C48.104 32 51.632 30.892 54.4 28.52C57.152 26.16 58.952 22.732 59.948 18.456C60.0541 18.0031 59.9991 17.5274 59.7924 17.1107C59.5856 16.6941 59.2401 16.3625 58.8153 16.173C58.3905 15.9836 57.9129 15.9481 57.4648 16.0728C57.0167 16.1974 56.626 16.4744 56.36 16.856C55.096 18.664 53.832 19.748 52.616 20.308C51.44 20.848 50.172 20.956 48.716 20.568C47.252 20.176 46.116 19.024 44.336 17.088L44.276 17.024C42.932 15.564 41.296 13.784 39.056 12.4C36.728 10.964 33.836 10 30 10Z" fill="#A93DE9"/>
<path d="M16 28C11.896 28 8.368 29.108 5.6 31.48C2.848 33.84 1.052 37.268 0.0520034 41.544C-0.0541359 41.9969 0.000896871 42.4726 0.207632 42.8893C0.414366 43.3059 0.759873 43.6375 1.1847 43.827C1.60952 44.0164 2.08709 44.0519 2.53522 43.9272C2.98335 43.8026 3.37402 43.5256 3.64 43.144C4.904 41.336 6.168 40.252 7.384 39.692C8.56 39.152 9.828 39.044 11.284 39.432C12.748 39.824 13.884 40.976 15.664 42.912L15.724 42.976C17.068 44.436 18.704 46.216 20.944 47.6C23.272 49.036 26.164 50 30 50C34.104 50 37.632 48.892 40.4 46.52C43.152 44.16 44.952 40.732 45.948 36.456C46.0541 36.0031 45.9991 35.5274 45.7924 35.1107C45.5856 34.6941 45.2401 34.3625 44.8153 34.173C44.3905 33.9836 43.9129 33.9481 43.4648 34.0728C43.0167 34.1974 42.626 34.4744 42.36 34.856C41.096 36.664 39.832 37.748 38.616 38.308C37.44 38.848 36.172 38.956 34.716 38.568C33.252 38.176 32.116 37.024 30.336 35.088L30.276 35.024C28.936 33.564 27.296 31.784 25.056 30.4C22.728 28.96 19.836 28 16 28Z" fill="#A93DE9"/>
</g>
<defs>
<clipPath id="clip0_27_58">
<rect width="60" height="60" fill="white"/>
</clipPath>
</defs>
</svg>
